Coordinates
version=1
nRows=12
nColumns=46
inDegrees=yes

Units are S.I. units (second, meters, Newtons, ...)
Angles are in degrees.

endheader
time	pelvis_tilt	pelvis_list	pelvis_rotation	pelvis_tx	pelvis_ty	pelvis_tz	bb_angle	bb_tx	bb_ty	bb_tz	hip_flexion_r	hip_adduction_r	hip_rotation_r	knee_angle_r	knee_angle_r_beta	ankle_angle_r	subtalar_angle_r	mtp_angle_r	crank_angle_r	hip_flexion_l	hip_adduction_l	hip_rotation_l	knee_angle_l	knee_angle_l_beta	ankle_angle_l	subtalar_angle_l	mtp_angle_l	crank_angle_l	lumbar_extension	lumbar_bending	lumbar_rotation	arm_flex_r	arm_add_r	arm_rot_r	elbow_flex_r	pro_sup_r	wrist_flex_r	wrist_dev_r	arm_flex_l	arm_add_l	arm_rot_l	elbow_flex_l	pro_sup_l	wrist_flex_l	wrist_dev_l
      7.50000000	    -22.81322928	      7.00565911	      9.24040557	      0.26376821	      1.22556346	     -0.20526044	      0.00000000	      0.50000000	      0.00000000	      0.25000000	     36.99140436	    -16.01997677	    -10.69297847	     38.51845809	      0.67227392	    -12.79873829	      0.36522767	      0.00000000	      0.00000000	     80.05795811	     -5.37488506	     -6.37789522	     90.94030396	      1.58720773	     17.88554629	     13.78861436	      0.00000000	      0.00000000	    -59.38264362	     -4.52065659	     -5.71413915	     75.50585065	    -20.43364863	     34.75931812	     46.69514960	     44.97568468	      0.00000000	      0.00000000	     85.80246028	     -6.79961368	     49.59686412	     36.91820030	     41.50586650	      0.00000000	      0.00000000
      7.50500000	    -22.83747055	      6.70744172	      9.00461233	      0.26370141	      1.22746494	     -0.20566724	      0.00000000	      0.50000000	      0.00000000	      0.25000000	     37.91332796	    -15.86427911	    -10.30266755	     40.75091345	      0.71123761	    -12.77308224	     -0.25167439	      0.00000000	      0.00000000	     79.29417925	     -5.24321341	     -6.31237875	     88.90289637	      1.55164826	     18.17528094	     13.35435109	      0.00000000	      0.00000000	    -59.54376951	     -4.43403372	     -5.33280983	     75.76211776	    -20.41748000	     34.83726674	     46.57429616	     44.97201092	      0.00000000	      0.00000000	     85.83419896	     -6.65333973	     49.38044882	     37.01628026	     41.48831632	      0.00000000	      0.00000000
      7.51000000	    -22.79780445	      6.27942648	      8.66593208	      0.26367442	      1.22917619	     -0.20586634	      0.00000000	      0.50000000	      0.00000000	      0.25000000	     38.85350517	    -15.52660151	     -9.93314653	     43.04936901	      0.75135323	    -12.74991326	     -0.73989468	      0.00000000	      0.00000000	     78.45365201	     -5.28008736	     -6.16488322	     86.81554752	      1.51521715	     18.22574947	     12.97936924	      0.00000000	      0.00000000	    -59.69415427	     -4.33243361	     -4.85263058	     76.12529890	    -20.36642153	     34.89121959	     46.47251873	     44.96384936	      0.00000000	      0.00000000	     85.77885167	     -6.55228807	     49.11128393	     37.10149096	     41.46378900	      0.00000000	      0.00000000
      7.51500000	    -22.97242310	      6.02535839	      8.23957518	      0.26360472	      1.23045683	     -0.20601079	      0.00000000	      0.50000000	      0.00000000	      0.25000000	     40.17950175	    -15.28503604	     -9.19506622	     45.46894148	      0.79358274	    -12.84610753	     -1.15584645	      0.00000000	      0.00000000	     77.67173795	     -5.32838129	     -6.24240537	     84.55979754	      1.47584688	     18.03650357	     12.42405575	      0.00000000	      0.00000000	    -59.59737369	     -4.50467477	     -4.51181803	     76.34820439	    -20.32545876	     35.17869551	     46.06258633	     44.94587557	      0.00000000	      0.00000000	     85.56192993	     -6.30883027	     48.30688730	     37.28064819	     41.38052226	      0.00000000	      0.00000000
      7.52000000	    -22.82839921	      5.80649969	      8.02789926	      0.26348482	      1.23243684	     -0.20612221	      0.00000000	      0.50000000	      0.00000000	      0.25000000	     41.07867962	    -15.17570112	     -8.71981107	     47.81433208	      0.83451752	    -12.80970315	     -1.47098730	      0.00000000	      0.00000000	     76.46183413	     -5.09197051	     -6.23070344	     82.11279824	      1.43313869	     17.73067589	     11.80487544	      0.00000000	      0.00000000	    -59.88960449	     -4.34787431	     -4.46015948	     77.23970945	    -19.83589153	     36.08984808	     44.95090023	     44.93220915	      0.00000000	      0.00000000	     85.05615927	     -5.90272175	     45.47568315	     37.56950511	     41.03964930	      0.00000000	      0.00000000
      7.52500000	    -22.75433823	      5.61298846	      7.86062976	      0.26390088	      1.23419607	     -0.20566353	      0.00000000	      0.50000000	      0.00000000	      0.25000000	     42.02748714	    -15.06888945	     -8.26978425	     50.13702678	      0.87505619	    -12.85879408	     -1.85806409	      0.00000000	      0.00000000	     75.21699917	     -4.95701537	     -6.27093601	     79.58559964	      1.38903075	     17.25770772	     11.34909509	      0.00000000	      0.00000000	    -60.13575773	     -4.36189650	     -4.25854233	     77.41369518	    -19.77704976	     36.08246226	     44.85554127	     44.92566988	      0.00000000	      0.00000000	     85.08996693	     -5.84072298	     45.23185137	     37.70718166	     41.03010215	      0.00000000	      0.00000000
      7.53000000	    -22.57286717	      4.98973780	      7.48312293	      0.26409019	      1.23534211	     -0.20602616	      0.00000000	      0.50000000	      0.00000000	      0.25000000	     42.93821732	    -14.54437042	     -8.00084806	     52.47496378	      0.91586089	    -12.81546850	     -2.03847928	      0.00000000	      0.00000000	     74.07548548	     -5.03417967	     -5.84010130	     77.28405802	      1.34886127	     16.85255332	     10.98304429	      0.00000000	      0.00000000	    -60.29308776	     -4.07034892	     -3.60004270	     77.76616071	    -19.64527294	     36.06845493	     44.84292645	     44.92031008	      0.00000000	      0.00000000	     84.99157628	     -5.85289466	     45.07294500	     37.73500638	     41.01574385	      0.00000000	      0.00000000
      7.53500000	    -22.60107832	      4.36585152	      6.79739709	      0.26430384	      1.23572967	     -0.20709165	      0.00000000	      0.50000000	      0.00000000	      0.25000000	     44.20997339	    -13.90702836	     -7.44227228	     54.83246010	      0.95700697	    -12.82858491	     -1.87532394	      0.00000000	      0.00000000	     73.11071421	     -5.34017626	     -5.57311488	     75.06797122	      1.31018326	     16.34807934	      9.93930727	      0.00000000	      0.00000000	    -60.15090404	     -3.98818651	     -2.79567164	     77.99360493	    -19.59456431	     36.22866947	     44.52908685	     44.89508552	      0.00000000	      0.00000000	     84.71980533	     -5.72413475	     44.57269087	     37.87291800	     40.97781868	      0.00000000	      0.00000000
      7.54000000	    -22.35356044	      3.52814005	      6.30634579	      0.26483104	      1.23646414	     -0.20792489	      0.00000000	      0.50000000	      0.00000000	      0.25000000	     45.01113782	    -13.16185645	     -7.29382526	     57.02148900	      0.99521273	    -13.00353896	     -1.83263598	      0.00000000	      0.00000000	     71.87588300	     -5.65179651	     -4.96619700	     72.88859582	      1.27214598	     16.02723836	      9.68398101	      0.00000000	      0.00000000	    -60.23876125	     -3.52868812	     -1.92621823	     78.03405951	    -19.36824614	     36.32256916	     44.53676527	     44.90707301	      0.00000000	      0.00000000	     84.52370597	     -5.85351984	     44.43924941	     37.82404711	     40.95668653	      0.00000000	      0.00000000
      7.54500000	    -22.45574566	      3.06963391	      5.79162614	      0.26516493	      1.23638653	     -0.20872747	      0.00000000	      0.50000000	      0.00000000	      0.25000000	     46.41359636	    -12.77918580	     -6.83327556	     59.50600141	      1.03857565	    -12.76683506	     -1.76263411	      0.00000000	      0.00000000	     70.85853352	     -5.81143097	     -4.85610218	     70.61822582	      1.23252055	     15.14600398	      8.35948298	      0.00000000	      0.00000000	    -60.01171493	     -3.38661181	     -1.44674454	     78.91847591	    -19.20154323	     37.83443575	     43.30812348	     44.94809135	      0.00000000	      0.00000000	     83.36908550	     -5.18178645	     40.65476025	     38.47114491	     40.62625987	      0.00000000	      0.00000000
      7.55000000	    -22.31970960	      2.49566661	      5.37873497	      0.26585491	      1.23682457	     -0.20952848	      0.00000000	      0.50000000	      0.00000000	      0.25000000	     47.39223402	    -12.32181898	     -6.61722197	     61.77458809	      1.07816996	    -12.53304432	     -1.76488297	      0.00000000	      0.00000000	     69.53854025	     -6.00828615	     -4.57753168	     68.31008935	      1.19223597	     14.41863789	      7.87691573	      0.00000000	      0.00000000	    -60.05049791	     -3.05645401	     -0.75225497	     79.08858193	    -19.15167832	     37.86227070	     43.29411822	     44.95075992	      0.00000000	      0.00000000	     83.06979285	     -5.21528898	     40.59004709	     38.49938360	     40.63319872	      0.00000000	      0.00000000
      7.55500000	    -22.08614867	      1.75809910	      5.00442520	      0.26671605	      1.23704209	     -0.21020283	      0.00000000	      0.50000000	      0.00000000	      0.25000000	     48.23541475	    -11.73823170	     -6.57999781	     64.01003418	      1.11718585	    -12.43873925	     -1.68928153	      0.00000000	      0.00000000	     68.15938872	     -6.31512685	     -4.09588104	     66.10333349	      1.15372082	     13.84917423	      7.67515612	      0.00000000	      0.00000000	    -60.08891594	     -2.61988831	      0.07125350	     79.02978029	    -18.99001816	     37.94523008	     43.29341524	     44.96187778	      0.00000000	      0.00000000	     82.86141092	     -5.37223993	     40.50850971	     38.46191663	     40.62332198	      0.00000000	      0.00000000
